<?xml version="1.0" encoding="UTF-8"?>
<svg width="43px" height="29px" viewBox="0 0 43 29" version="1.1" xmlns="http://www.w3.org/2000/svg" xmlns:xlink="http://www.w3.org/1999/xlink">
    <title>logo-will road</title>
    <g id="blog" stroke="none" stroke-width="1" fill="none" fill-rule="evenodd">
        <g id="" transform="translate(-180.000000, -41.000000)">
            <rect fill="#FBFBFB" x="0" y="0" width="1400" height="2400"></rect>
            <rect id="bg" fill="#FFFFFF" x="100" y="0" width="1200" height="2400"></rect>
            <g id="head" transform="translate(100.000000, 11.000000)">
                <rect id="矩形" x="0" y="0" width="1200" height="90"></rect>
                <path d="M114.465781,30.5148787 C111.958505,30.6903603 108.38937,30.9423441 101.3508,31.216805 C94.3122293,31.4912658 88.3084636,31.6750445 87.2714823,31.7432496 C86.234501,31.8114547 84.957074,32.0942127 84.7642066,32.796139 C84.5713392,33.4980652 85.3069209,33.849747 87.2714823,34.375473 C89.2360438,34.901199 98.3042476,36.9966231 99.6149936,37.3586595 C100.92574,37.7206958 106.575072,39.3588545 100.386463,39.8154013 C94.197854,40.2719481 90.7629469,40.0728455 88.0429518,40.3418459 C85.3229567,40.6108464 83.7998698,40.8682906 82.6426656,41.5702168 C82.0907202,41.9050108 81.4854614,42.6231062 81.0997267,43.500514 C80.713992,44.3779218 80.8890882,46.3676636 81.2925941,47.0101451 C82.0640635,48.238516 83.2212677,49.2914054 84.1856045,49.9933316 C84.5811686,50.2812567 85.8772622,51.4311478 88.0738853,53.0920417 C88.9895135,53.7843595 91.4706015,55.7298155 95.5171493,58.9284096 L122.884603,58.7463654 C117.11446,56.1213654 113.267698,54.3713654 111.344317,53.4963654 C108.459246,52.1838654 99.7731909,49.0053024 98.6506567,48.4139976 C97.5281226,47.8226928 95.7576463,46.8346636 95.9505137,45.9572558 C96.143381,45.079848 98.6506567,44.3779218 100.386463,44.0269587 C102.122269,43.6759955 107.068361,42.6873049 109.451229,42.2721431 C111.834097,41.8569813 113.200469,41.5126928 114.080046,41.2192537 C114.959623,40.9258146 115.697736,39.5539118 115.23725,38.7625119 C114.776764,37.9711121 113.887178,37.0076964 111.379903,36.4812517 C108.872627,35.954807 101.42405,34.1989486 100.772198,34.0245099 C100.120346,33.8500711 98.1791287,33.4015072 104.050943,33.1471021 C109.922757,32.892697 114.600231,32.520932 115.815852,32.4451759 C117.031473,32.3694197 117.937393,32.2696943 118.13026,31.9187312 C118.342921,31.5317499 118.323128,30.6903603 117.744526,30.5148787 C117.165924,30.3393972 115.807882,30.4209465 114.465781,30.5148787 Z" id="logo-will-road" fill="#434343"></path>
            </g>
        </g>
    </g>
</svg>